<svg xmlns:xlink="http://www.w3.org/1999/xlink" xmlns="http://www.w3.org/2000/svg" width="350" height="78.9313325551977" viewBox="0 0 350 78.9313325551977" class="css-1j8o68f"><defs id="SvgjsDefs2128"></defs><g id="SvgjsG2129" featurekey="DhFEHj-0" transform="matrix(3.4462387594886654,0,0,3.4462387594886654,-1.033871258105293,-21.29775658534856)" fill="#111111"><path d="M6.24 19.44 c-0.44 0.38 -1.2 0.7 -2.06 0.7 c-1.72 0 -2.82 -0.9 -2.82 -3 l0 -6.3 l-0.8 0 c-0.18 0 -0.26 -0.1 -0.26 -0.28 l0 -0.3 c0 -0.18 0.08 -0.28 0.26 -0.28 c1.48 0 2.08 -1.04 2.28 -2.72 l1.22 0 l0 2.72 l1.92 0 c0.18 0 0.26 0.1 0.26 0.28 l0 0.3 c0 0.18 -0.08 0.28 -0.26 0.28 l-1.92 0 l0 6.68 c0 0.88 0.14 1.6 0.96 1.6 c0.48 0 0.94 -0.28 1.22 -0.58 l0 0.9 z M17.4 18.5 c0 0.5 0.54 0.66 1.26 0.74 l0 0.76 c-1.74 -0.06 -3.46 -0.06 -5.2 0 l0 -0.76 c0.7 -0.06 1.24 -0.24 1.24 -0.74 l0 -5.12 c0 -1.42 -0.12 -2.38 -1.12 -2.38 c-1.26 0 -2.3 1.64 -2.5 2.1 l0 5.4 c0 0.5 0.54 0.68 1.26 0.74 l0 0.76 c-1.74 -0.06 -3.46 -0.06 -5.2 0 l0 -0.76 c0.7 -0.08 1.24 -0.24 1.24 -0.74 l0 -9.48 c0 -0.74 -0.48 -0.9 -1.24 -0.78 l0 -0.76 c1.98 -0.4 2.86 -1.3 3.38 -1.3 c0.42 0 0.56 0.22 0.56 0.68 l0 3.88 l-0.18 1.34 c0.46 -0.7 1.62 -2.28 3.5 -2.28 c1.56 0 3 0.66 3 3.48 l0 5.22 z M27.660000000000004 17.740000000000002 c0.26 0 0.32 0.26 0.14 0.58 c-0.64 1.14 -1.72 1.88 -3.42 1.88 c-2.76 0 -5.02 -1.82 -5.02 -5.24 c0 -3.36 2.36 -5.14 4.74 -5.14 c2.5 0 4.26 1.76 4.26 4.08 c0 0.86 -0.34 1.42 -1.24 1.42 l-5 0 c0.04 2.18 0.7 4.08 2.6 4.08 c1.06 0 1.74 -0.44 2.26 -1.36 c0.12 -0.2 0.18 -0.3 0.42 -0.3 l0.26 0 z M25.8 14.4 c0 -2.36 -0.46 -3.78 -1.72 -3.78 c-1.3 0 -1.94 1.42 -1.96 3.78 l3.68 0 z M35.68 9.82 c1.9 0 4.3 1.82 4.3 5.38 c0 3.22 -2.6 5.1 -4.7 5.1 c-1.04 0 -1.76 -0.46 -2.28 -1 l0 2.12 c0 0.74 0.48 0.88 1.44 0.76 l0 0.82 c-2.18 0.4 -3.52 1.32 -4.22 1.32 c-0.3 0 -0.48 -0.14 -0.48 -0.4 c0 -0.52 0.56 -0.32 0.56 -2.1 l0 -9.26 c0 -0.74 -0.48 -0.9 -1.24 -0.78 l0 -0.76 c1.98 -0.4 2.86 -1.3 3.38 -1.3 c0.42 0 0.56 0.22 0.56 0.68 l0 0.54 c0.52 -0.56 1.32 -1.12 2.68 -1.12 z M35.300000000000004 19.54 c1.34 0 1.78 -1.58 1.78 -3.48 c0 -3.3 -0.82 -5.38 -2.14 -5.38 c-0.8 0 -1.46 0.52 -1.94 1.12 l0 5.36 c0.18 1.28 1.24 2.38 2.3 2.38 z M50.86 17.6 c0 0.74 0.48 0.9 1.26 0.76 l0 0.74 c-1.94 0.48 -2.9 1.16 -3.36 1.16 c-0.44 0 -0.66 -0.32 -0.6 -0.82 l0.2 -1.6 c-0.44 0.72 -1.54 2.46 -3.44 2.46 c-1.56 0 -3.08 -0.74 -3.08 -3.56 l0 -5.2 c0 -0.46 -0.16 -0.66 -0.56 -0.64 l-0.6 0.02 l0 -0.78 l3.3 -0.24 c0.3 -0.02 0.56 0.14 0.56 0.5 l0 6.14 c0 1.44 0.1 2.56 1.18 2.56 c1.28 0 2.22 -1.9 2.44 -2.4 l0 -5.16 c0 -0.46 -0.16 -0.66 -0.56 -0.64 l-0.6 0.02 l0 -0.78 l3.3 -0.24 c0.3 -0.02 0.56 0.14 0.56 0.5 l0 7.2 z M58.66 19.44 c-0.44 0.38 -1.2 0.7 -2.06 0.7 c-1.72 0 -2.82 -0.9 -2.82 -3 l0 -6.3 l-0.8 0 c-0.18 0 -0.26 -0.1 -0.26 -0.28 l0 -0.3 c0 -0.18 0.08 -0.28 0.26 -0.28 c1.48 0 2.08 -1.04 2.28 -2.72 l1.22 0 l0 2.72 l1.92 0 c0.18 0 0.26 0.1 0.26 0.28 l0 0.3 c0 0.18 -0.08 0.28 -0.26 0.28 l-1.92 0 l0 6.68 c0 0.88 0.14 1.6 0.96 1.6 c0.48 0 0.94 -0.28 1.22 -0.58 l0 0.9 z M67.33999999999999 17.22 c0 1.78 -1.76 3.04 -3.36 3.04 c-1.38 0 -2.22 -0.72 -2.74 -0.72 c-0.24 0 -0.38 0.14 -0.4 0.44 l-0.78 0 l-0.24 -2.78 l0.42 0 c0.3 0 0.5 0.06 0.6 0.36 c0.34 1.08 1.74 1.96 2.82 1.96 c0.86 0 1.4 -0.56 1.4 -1.32 c0 -1 -0.86 -1.44 -2.08 -2.02 c-1.34 -0.64 -3.22 -1.56 -3.22 -3.5 c0 -1.7 1.42 -2.86 3.2 -2.86 c1.38 0 1.82 0.56 2.32 0.56 c0.28 0 0.42 -0.16 0.48 -0.4 l0.78 0 l0.18 2.74 l-0.4 0 c-0.3 0 -0.5 -0.08 -0.62 -0.38 c-0.48 -1.16 -1.42 -1.8 -2.34 -1.8 c-0.82 0 -1.4 0.56 -1.4 1.32 c0 0.88 0.72 1.32 1.78 1.8 c1.22 0.56 3.6 1.5 3.6 3.56 z M77.61999999999999 9.84 c0.72 0 0.98 0.34 0.98 1.04 c0 0.46 -0.02 1 -0.58 0.98 c-0.32 -0.02 -0.54 -0.12 -0.86 -0.12 c-0.26 0 -0.28 0.18 -0.22 0.36 c0.12 0.32 0.3 0.72 0.3 1.34 c0 2.16 -1.76 3.5 -4.26 3.5 c-1.04 0 -1.68 -0.28 -2.14 -0.28 c-0.34 0 -0.52 0.18 -0.52 0.44 c0 0.4 0.42 0.62 1.46 0.78 l2.22 0.32 c2.64 0.38 4 1 4 2.88 c0 1.92 -2.22 3.26 -5.02 3.26 c-2.64 0 -4.56 -0.94 -4.56 -2.66 c0 -0.96 0.56 -1.6 1.5 -1.6 c0.58 0 1.1 0.26 1.1 0.86 c0 0.62 -0.2 0.7 -0.2 1.34 s0.7 1.32 2.22 1.32 c1.54 0 2.72 -0.68 2.72 -2.12 c0 -0.66 -0.4 -1.02 -1.48 -1.22 l-3.8 -0.7 c-1.44 -0.26 -2.04 -0.94 -2.04 -1.82 c0 -0.82 0.64 -1.54 1.9 -1.56 c-0.94 -0.48 -1.64 -1.54 -1.64 -2.74 c0 -2.14 1.7 -3.62 4.24 -3.62 c1.64 0 2.48 0.6 3.18 1.26 c0.22 -0.74 0.68 -1.24 1.5 -1.24 z M72.96 16.12 c1.26 0 1.6 -1.38 1.6 -2.68 c0 -1.24 -0.32 -2.82 -1.6 -2.82 s-1.6 1.58 -1.6 2.82 c0 1.3 0.34 2.68 1.6 2.68 z M89.58 17.6 c0 0.74 0.48 0.9 1.26 0.76 l0 0.74 c-1.94 0.48 -2.9 1.16 -3.36 1.16 c-0.44 0 -0.66 -0.32 -0.6 -0.82 l0.2 -1.6 c-0.44 0.72 -1.54 2.46 -3.44 2.46 c-1.56 0 -3.08 -0.74 -3.08 -3.56 l0 -5.2 c0 -0.46 -0.16 -0.66 -0.56 -0.64 l-0.6 0.02 l0 -0.78 l3.3 -0.24 c0.3 -0.02 0.56 0.14 0.56 0.5 l0 6.14 c0 1.44 0.1 2.56 1.18 2.56 c1.28 0 2.22 -1.9 2.44 -2.4 l0 -5.16 c0 -0.46 -0.16 -0.66 -0.56 -0.64 l-0.6 0.02 l0 -0.78 l3.3 -0.24 c0.3 -0.02 0.56 0.14 0.56 0.5 l0 7.2 z M101.86000000000001 9.98 l0 0.76 l-0.6 0.06 c-0.58 0.06 -0.86 0.44 -1 0.82 l-4.8 12.36 c-0.1 0.26 -0.2 0.4 -0.72 0.4 c-0.62 0 -0.8 -0.14 -0.66 -0.4 c0.32 -0.62 1.86 -3.44 1.86 -3.74 c0 -0.48 -2.48 -5.76 -3.76 -8.62 c-0.18 -0.42 -0.38 -0.78 -0.74 -0.82 l-0.6 -0.06 l0 -0.76 c1.66 0.06 3.54 0.06 5.12 0 l0 0.76 l-0.6 0.06 c-0.42 0.04 -0.64 0.42 -0.46 0.82 l2.38 5.4 l2.06 -5.4 c0.16 -0.42 -0.18 -0.78 -0.7 -0.82 l-0.66 -0.06 l0 -0.76 c1.24 0.06 2.32 0.06 3.88 0 z" fill="#111111"></path></g><g id="SvgjsG2130" featurekey="aJrulJ-0" transform="matrix(0.398607862353533,0,0,0.398607862353533,212.73691906174045,70.81563669961245)" fill="#111111"><path d="M5.88 5.48 c1.84 0 3.2 0.54006 4.08 1.6201 l-1.56 1.42 c-0.24 -0.37334 -0.58 -0.67334 -1.02 -0.9 s-0.94666 -0.34 -1.52 -0.34 c-0.82666 0 -1.49 0.20334 -1.99 0.61 s-0.75 0.93 -0.75 1.57 c0 1.0667 0.70666 1.8133 2.12 2.24 l1.78 0.58 c1 0.32 1.7633 0.76666 2.29 1.34 s0.79 1.36 0.79 2.36 c0 1.3067 -0.46334 2.3634 -1.39 3.17 s-2.1034 1.21 -3.53 1.21 c-2.04 0 -3.5466 -0.65334 -4.52 -1.96 l1.58 -1.36 c0.30666 0.48 0.72666 0.85334 1.26 1.12 s1.1133 0.4 1.74 0.4 c0.78666 0 1.4533 -0.22666 2 -0.68 s0.82 -1.0133 0.82 -1.68 c0 -0.49334 -0.16666 -0.90668 -0.5 -1.24 s-0.93334 -0.63334 -1.8 -0.9 l-1.26 -0.42 c-1.2667 -0.42666 -2.1534 -0.97 -2.66 -1.63 s-0.76 -1.51 -0.76 -2.55 c0 -1.1067 0.44666 -2.0466 1.34 -2.82 s2.0466 -1.16 3.46 -1.16 z M25.488000000000003 5.84 l0 1.8 l-7.22 0 l0 4.22 l6.72 0 l0 1.8 l-6.72 0 l0 4.54 l7.58 0 l0 1.8 l-9.5 0 l0 -14.16 l9.14 0 z M33.896 5.84 l0 12.36 l6.5 0 l0 1.8 l-8.42 0 l0 -14.16 l1.92 0 z M47.684000000000005 5.84 l0 12.36 l6.5 0 l0 1.8 l-8.42 0 l0 -14.16 l1.92 0 z M61.472 5.84 l0 14.16 l-1.92 0 l0 -14.16 l1.92 0 z M71.04 5.84 l7.8 11.64 l0.04 0 l0 -11.64 l1.92 0 l0 14.16 l-2.44 0 l-7.88 -11.64 l-0.04 0 l0 11.64 l-1.92 0 l0 -14.16 l2.52 0 z M94.36800000000001 5.48 c2.36 0 4.1134 0.6133 5.26 1.84 l-1.36 1.46 c-1.0533 -1 -2.36 -1.5 -3.92 -1.5 s-2.84 0.53666 -3.84 1.61 s-1.5 2.4166 -1.5 4.03 c0 1.6267 0.53 2.9734 1.59 4.04 s2.3634 1.6 3.91 1.6 c1.4667 0 2.6266 -0.24666 3.48 -0.74 l0 -3.94 l-3.14 0 l0 -1.8 l5.06 0 l0 6.98 c-0.69334 0.41334 -1.53 0.73334 -2.51 0.96 s-1.93 0.34 -2.85 0.34 c-2.2266 0 -4.0466 -0.69334 -5.46 -2.08 s-2.12 -3.1734 -2.12 -5.36 c0 -2.1066 0.69666 -3.8734 2.09 -5.3 s3.1634 -2.14 5.31 -2.14 z M120.86400000000002 5.84 c1.3733 0 2.4566 0.34 3.25 1.02 s1.19 1.66 1.19 2.94 c0 1.24 -0.39334 2.21 -1.18 2.91 s-1.8733 1.05 -3.26 1.05 l-3.16 0 l0 6.24 l-1.92 0 l0 -14.16 l5.08 0 z M120.30400000000002 12.08 c1 0 1.7433 -0.18336 2.23 -0.55002 s0.73 -0.94332 0.73 -1.73 c0 -1.52 -0.98666 -2.28 -2.96 -2.28 l-2.6 0 l0 4.56 l2.6 0 z M132.71200000000002 5.84 l0 8.74 c0 1.16 0.32334 2.1134 0.97 2.86 s1.51 1.12 2.59 1.12 s1.9433 -0.37334 2.59 -1.12 s0.97 -1.7 0.97 -2.86 l0 -8.74 l1.92 0 l0 9.06 c0 0.97334 -0.23 1.8833 -0.69 2.73 s-1.1133 1.5133 -1.96 2 s-1.79 0.73 -2.83 0.73 c-1.6 0 -2.9134 -0.52334 -3.94 -1.57 s-1.54 -2.3434 -1.54 -3.89 l0 -9.06 l1.92 0 z M157.98000000000002 5.84 l0 1.8 l-4.56 0 l0 12.36 l-1.92 0 l0 -12.36 l-4.56 0 l0 -1.8 l11.04 0 z M167.48800000000003 5.48 c1.84 0 3.2 0.54006 4.08 1.6201 l-1.56 1.42 c-0.24 -0.37334 -0.58 -0.67334 -1.02 -0.9 s-0.94666 -0.34 -1.52 -0.34 c-0.82666 0 -1.49 0.20334 -1.99 0.61 s-0.75 0.93 -0.75 1.57 c0 1.0667 0.70666 1.8133 2.12 2.24 l1.78 0.58 c1 0.32 1.7633 0.76666 2.29 1.34 s0.79 1.36 0.79 2.36 c0 1.3067 -0.46334 2.3634 -1.39 3.17 s-2.1034 1.21 -3.53 1.21 c-2.04 0 -3.5466 -0.65334 -4.52 -1.96 l1.58 -1.36 c0.30666 0.48 0.72666 0.85334 1.26 1.12 s1.1133 0.4 1.74 0.4 c0.78666 0 1.4533 -0.22666 2 -0.68 s0.82 -1.0133 0.82 -1.68 c0 -0.49334 -0.16666 -0.90668 -0.5 -1.24 s-0.93334 -0.63334 -1.8 -0.9 l-1.26 -0.42 c-1.2667 -0.42666 -2.1534 -0.97 -2.66 -1.63 s-0.76 -1.51 -0.76 -2.55 c0 -1.1067 0.44666 -2.0466 1.34 -2.82 s2.0466 -1.16 3.46 -1.16 z M195.824 5.84 l0 1.8 l-6.98 0 l0 4.44 l6.5 0 l0 1.8 l-6.5 0 l0 6.12 l-1.92 0 l0 -14.16 l8.9 0 z M208.312 5.48 c2.1066 0 3.8634 0.69998 5.27 2.1 s2.11 3.18 2.11 5.34 c0 1.3733 -0.31334 2.63 -0.94 3.77 s-1.51 2.0366 -2.65 2.69 s-2.4034 0.98 -3.79 0.98 c-1.3733 0 -2.6266 -0.32334 -3.76 -0.97 s-2.02 -1.54 -2.66 -2.68 s-0.96 -2.4034 -0.96 -3.79 c0 -2.1066 0.69 -3.8734 2.07 -5.3 s3.15 -2.14 5.31 -2.14 z M202.972 12.92 c0 1.6 0.49998 2.94 1.5 4.02 s2.28 1.62 3.84 1.62 c1.5333 0 2.8066 -0.53334 3.82 -1.6 s1.52 -2.4134 1.52 -4.04 c0 -1.6133 -0.5 -2.9566 -1.5 -4.03 s-2.2866 -1.61 -3.86 -1.61 c-1.52 0 -2.7866 0.53334 -3.8 1.6 s-1.52 2.4134 -1.52 4.04 z M226.94000000000003 5.84 c1.3867 0 2.4734 0.34666 3.26 1.04 s1.18 1.6667 1.18 2.92 c0 0.94666 -0.32334 1.7733 -0.97 2.48 s-1.4767 1.1267 -2.49 1.26 l-0.02 0 l4.02 6.46 l-2.4 0 l-3.6 -6.24 l-2.14 0 l0 6.24 l-1.92 0 l0 -14.16 l5.08 0 z M226.38000000000002 12.08 c1 0 1.7433 -0.18336 2.23 -0.55002 s0.73 -0.94332 0.73 -1.73 c0 -1.52 -0.98666 -2.28 -2.96 -2.28 l-2.6 0 l0 4.56 l2.6 0 z M248.376 5.84 l0 14.16 l-1.92 0 l0 -14.16 l1.92 0 z M257.94399999999996 5.84 l7.8 11.64 l0.04 0 l0 -11.64 l1.92 0 l0 14.16 l-2.44 0 l-7.88 -11.64 l-0.04 0 l0 11.64 l-1.92 0 l0 -14.16 l2.52 0 z M281.25199999999995 5.48 c1 0 1.9367 0.18664 2.81 0.55998 s1.59 0.92 2.15 1.64 l-1.6 1.22 c-0.86666 -1.08 -2.0066 -1.62 -3.42 -1.62 c-1.5333 0 -2.7966 0.54666 -3.79 1.64 s-1.49 2.4666 -1.49 4.12 c0 1.6 0.49 2.92 1.47 3.96 s2.25 1.56 3.81 1.56 s2.7934 -0.63334 3.7 -1.9 l1.62 1.22 c-0.56 0.74666 -1.3067 1.3467 -2.24 1.8 s-1.9733 0.68 -3.12 0.68 c-1.36 0 -2.5934 -0.33 -3.7 -0.99 s-1.98 -1.5667 -2.62 -2.72 s-0.96 -2.3634 -0.96 -3.63 c0 -2.1866 0.68666 -3.99 2.06 -5.41 s3.1466 -2.13 5.32 -2.13 z M298.73999999999995 5.48 c2.1066 0 3.8634 0.69998 5.27 2.1 s2.11 3.18 2.11 5.34 c0 1.3733 -0.31334 2.63 -0.94 3.77 s-1.51 2.0366 -2.65 2.69 s-2.4034 0.98 -3.79 0.98 c-1.3733 0 -2.6266 -0.32334 -3.76 -0.97 s-2.02 -1.54 -2.66 -2.68 s-0.96 -2.4034 -0.96 -3.79 c0 -2.1066 0.69 -3.8734 2.07 -5.3 s3.15 -2.14 5.31 -2.14 z M293.4 12.92 c0 1.6 0.49998 2.94 1.5 4.02 s2.28 1.62 3.84 1.62 c1.5333 0 2.8066 -0.53334 3.82 -1.6 s1.52 -2.4134 1.52 -4.04 c0 -1.6133 -0.5 -2.9566 -1.5 -4.03 s-2.2866 -1.61 -3.86 -1.61 c-1.52 0 -2.7866 0.53334 -3.8 1.6 s-1.52 2.4134 -1.52 4.04 z M315.008 5.84 l4.5 10.72 l0.08 0 l4.46 -10.72 l2.86 0 l0 14.16 l-1.92 0 l0 -11.64 l-0.04 0 l-4.78 11.64 l-1.28 0 l-4.78 -11.64 l-0.04 0 l0 11.64 l-1.92 0 l0 -14.16 l2.86 0 z M342.95599999999996 5.84 l0 1.8 l-7.22 0 l0 4.22 l6.72 0 l0 1.8 l-6.72 0 l0 4.54 l7.58 0 l0 1.8 l-9.5 0 l0 -14.16 l9.14 0 z" fill="#111111"></path></g></svg>